<?xml version="1.0" encoding="UTF-8"?>
<svg xmlns="http://www.w3.org/2000/svg" viewBox="0 0 540 960" width="540" height="960" role="img" aria-label="Procedural Generation">
  <defs>
    <linearGradient id="bg" x1="0" y1="0" x2="1" y2="1">
      <stop offset="0%" stop-color="#1a1a2e"/>
      <stop offset="100%" stop-color="#0a0a14"/>
    </linearGradient>
    <radialGradient id="glow" cx="50%" cy="30%" r="55%">
      <stop offset="0%" stop-color="#38bdf8" stop-opacity="0.28"/>
      <stop offset="100%" stop-color="#38bdf8" stop-opacity="0"/>
    </radialGradient>
  </defs>
  <rect width="540" height="960" fill="url(#bg)"/>
  <rect width="540" height="960" fill="url(#glow)"/>
  <g stroke="#38bdf8" stroke-width="2">
    <rect x="160" y="200" width="220" height="220" fill="none" opacity="0.6"/>
  </g>
  <g fill="#38bdf8">
    <rect x="160" y="200" width="44" height="44" opacity="0.85"/>
    <rect x="248" y="200" width="44" height="44" opacity="0.35"/>
    <rect x="336" y="200" width="44" height="44" opacity="0.7"/>
    <rect x="204" y="244" width="44" height="44" opacity="0.4"/>
    <rect x="292" y="244" width="44" height="44" opacity="0.85"/>
    <rect x="160" y="288" width="44" height="44" opacity="0.5"/>
    <rect x="248" y="288" width="44" height="44" opacity="0.75"/>
    <rect x="336" y="288" width="44" height="44" opacity="0.3"/>
    <rect x="204" y="332" width="44" height="44" opacity="0.85"/>
    <rect x="292" y="332" width="44" height="44" opacity="0.45"/>
    <rect x="160" y="376" width="44" height="44" opacity="0.7"/>
    <rect x="336" y="376" width="44" height="44" opacity="0.85"/>
  </g>
  <rect x="250" y="510" width="40" height="3" fill="#38bdf8" rx="2"/>
  <text x="270" y="580" text-anchor="middle" font-size="36" font-weight="700" fill="#e2e8f0" font-family="Inter, system-ui, -apple-system, sans-serif">Procedural Generation</text>
  <text x="270" y="625" text-anchor="middle" font-size="20" fill="#94a3b8" font-family="Inter, system-ui, -apple-system, sans-serif">No two mazes alike</text>
</svg>
