<?xml version="1.0" encoding="UTF-8"?>
<svg xmlns="http://www.w3.org/2000/svg" viewBox="0 0 540 960" width="540" height="960" role="img" aria-label="Isometric Puzzle">
  <defs>
    <linearGradient id="bg" x1="0" y1="0" x2="1" y2="1">
      <stop offset="0%" stop-color="#1a1a2e"/>
      <stop offset="100%" stop-color="#0a0a14"/>
    </linearGradient>
    <radialGradient id="glow" cx="50%" cy="30%" r="55%">
      <stop offset="0%" stop-color="#38bdf8" stop-opacity="0.28"/>
      <stop offset="100%" stop-color="#38bdf8" stop-opacity="0"/>
    </radialGradient>
  </defs>
  <rect width="540" height="960" fill="url(#bg)"/>
  <rect width="540" height="960" fill="url(#glow)"/>
  <g>
    <polygon points="270,220 380,280 270,340 160,280" fill="#0ea5e9" opacity="0.35" stroke="#38bdf8" stroke-width="3"/>
    <polygon points="270,340 380,400 270,460 160,400" fill="#0ea5e9" opacity="0.55" stroke="#38bdf8" stroke-width="3"/>
    <polygon points="160,280 160,400 270,460 270,340" fill="#0284c7" opacity="0.75" stroke="#38bdf8" stroke-width="3"/>
    <polygon points="380,280 380,400 270,460 270,340" fill="#0369a1" opacity="0.85" stroke="#38bdf8" stroke-width="3"/>
  </g>
  <circle cx="270" cy="285" r="18" fill="#e2e8f0"/>
  <circle cx="264" cy="280" r="3" fill="#0a0a14"/>
  <circle cx="276" cy="280" r="3" fill="#0a0a14"/>
  <rect x="250" y="510" width="40" height="3" fill="#38bdf8" rx="2"/>
  <text x="270" y="580" text-anchor="middle" font-size="40" font-weight="700" fill="#e2e8f0" font-family="Inter, system-ui, -apple-system, sans-serif">Isometric Puzzle</text>
  <text x="270" y="625" text-anchor="middle" font-size="20" fill="#94a3b8" font-family="Inter, system-ui, -apple-system, sans-serif">Slide and navigate</text>
</svg>
