<?xml version="1.0" encoding="UTF-8"?>
<svg xmlns="http://www.w3.org/2000/svg" viewBox="0 0 540 960" width="540" height="960" role="img" aria-label="Special Skills">
  <defs>
    <linearGradient id="bg" x1="0" y1="0" x2="1" y2="1">
      <stop offset="0%" stop-color="#1a1a2e"/>
      <stop offset="100%" stop-color="#0a0a14"/>
    </linearGradient>
    <radialGradient id="glow" cx="50%" cy="30%" r="55%">
      <stop offset="0%" stop-color="#22c55e" stop-opacity="0.32"/>
      <stop offset="100%" stop-color="#22c55e" stop-opacity="0"/>
    </radialGradient>
  </defs>
  <rect width="540" height="960" fill="url(#bg)"/>
  <rect width="540" height="960" fill="url(#glow)"/>
  <path d="M 305 180 L 215 370 L 275 370 L 235 480 L 335 290 L 275 290 Z" fill="#22c55e" opacity="0.95"/>
  <path d="M 305 180 L 215 370 L 275 370 L 235 480 L 335 290 L 275 290 Z" fill="none" stroke="#86efac" stroke-width="2"/>
  <g fill="#22c55e" opacity="0.35">
    <circle cx="140" cy="240" r="4"/>
    <circle cx="420" cy="260" r="5"/>
    <circle cx="130" cy="400" r="5"/>
    <circle cx="410" cy="420" r="4"/>
    <circle cx="200" cy="180" r="3"/>
    <circle cx="360" cy="440" r="3"/>
  </g>
  <rect x="250" y="510" width="40" height="3" fill="#22c55e" rx="2"/>
  <text x="270" y="580" text-anchor="middle" font-size="40" font-weight="700" fill="#e2e8f0" font-family="Inter, system-ui, -apple-system, sans-serif">Special Skills</text>
  <text x="270" y="625" text-anchor="middle" font-size="20" fill="#94a3b8" font-family="Inter, system-ui, -apple-system, sans-serif">Turn the tide</text>
</svg>
